name C:\Users\u0101727\Documents\MyRepositories\upper-imu-dc\Results\main_tracking\Case_31\FLX01_orientations_groundFrame.mot
datacolumns 13
datarows 14
range 3.51000000 3.64000000
endheader 
time	radius_imu_[0][0]	radius_imu_[0][1]	radius_imu_[0][2]	radius_imu_[1][0]	radius_imu_[1][1]	radius_imu_[1][2]	radius_imu_[2][0]	radius_imu_[2][1]	radius_imu_[2][2]	radius_imu_x	radius_imu_y	radius_imu_z	
          3.51000000	          0.95355414	         -0.12711735	         -0.27308550	         -0.05345935	         -0.96361811	          0.26188209	         -0.29643989	         -0.23511978	         -0.92565765	         -2.86588327	         -0.27659899	          0.13252763	
          3.52000000	          0.95365648	         -0.12821876	         -0.27221182	         -0.05472452	         -0.96348597	          0.26210687	         -0.29587929	         -0.23506326	         -0.92585135	         -2.86571328	         -0.27569091	          0.13364817	
          3.53000000	          0.95366297	         -0.12931574	         -0.27166961	         -0.05584894	         -0.96331673	          0.26249147	         -0.29564816	         -0.23515594	         -0.92590164	         -2.86534300	         -0.27512747	          0.13477696	
          3.54000000	          0.95357730	         -0.13039629	         -0.27145375	         -0.05682328	         -0.96311242	          0.26303152	         -0.29573881	         -0.23539600	         -0.92581169	         -2.86477766	         -0.27490317	          0.13590144	
          3.55000000	          0.95341762	         -0.13144714	         -0.27150781	         -0.05765396	         -0.96287760	          0.26370957	         -0.29609266	         -0.23577185	         -0.92560292	         -2.86404069	         -0.27495934	          0.13700572	
          3.56000000	          0.95321478	         -0.13245478	         -0.27173022	         -0.05836218	         -0.96261896	          0.26449686	         -0.29660653	         -0.23626355	         -0.92531297	         -2.86317138	         -0.27519044	          0.13807172	
          3.57000000	          0.95300829	         -0.13340654	         -0.27198878	         -0.05898056	         -0.96234454	          0.26535688	         -0.29714726	         -0.23684526	         -0.92499072	         -2.86222004	         -0.27545912	          0.13908089	
          3.58000000	          0.95284056	         -0.13429167	         -0.27214080	         -0.05954780	         -0.96206290	          0.26624994	         -0.29757171	         -0.23748835	         -0.92468933	         -2.86124157	         -0.27561710	          0.14001602	
          3.59000000	          0.95275045	         -0.13510177	         -0.27205530	         -0.06010208	         -0.96178232	          0.26713763	         -0.29774875	         -0.23816441	         -0.92445844	         -2.86028871	         -0.27552825	          0.14086271	
          3.60000000	          0.95276723	         -0.13583079	         -0.27163319	         -0.06067445	         -0.96151016	          0.26798661	         -0.29757891	         -0.23884767	         -0.92433683	         -2.85940616	         -0.27508963	          0.14161026	
          3.61000000	          0.95290626	         -0.13647477	         -0.27082152	         -0.06128381	         -0.96125252	          0.26877108	         -0.29700834	         -0.23951667	         -0.92434724	         -2.85862648	         -0.27424634	          0.14225216	
          3.62000000	          0.95316734	         -0.13703165	         -0.26961891	         -0.06193462	         -0.96101398	          0.26947398	         -0.29603401	         -0.24015505	         -0.92449414	         -2.85796816	         -0.27299726	          0.14278618	
          3.63000000	          0.95353606	         -0.13750143	         -0.26807152	         -0.06261783	         -0.96079755	          0.27008716	         -0.29469983	         -0.24075179	         -0.92476515	         -2.85743584	         -0.27139072	          0.14321438	
          3.64000000	          0.95398744	         -0.13788664	         -0.26626158	         -0.06331457	         -0.96060456	          0.27061068	         -0.29308569	         -0.24130096	         -0.92513492	         -2.85702204	         -0.26951252	          0.14354309	
